<svg id="visual" viewBox="0 0 900 600" width="900" height="600" xmlns="http://www.w3.org/2000/svg" xmlns:xlink="http://www.w3.org/1999/xlink" version="1.1"><rect x="0" y="0" width="900" height="600" fill="#000000"></rect><path d="M0 329L39 329L39 317L78 317L78 279L117 279L117 299L157 299L157 282L196 282L196 278L235 278L235 329L274 329L274 284L313 284L313 328L352 328L352 289L391 289L391 274L430 274L430 303L470 303L470 274L509 274L509 289L548 289L548 297L587 297L587 286L626 286L626 311L665 311L665 300L704 300L704 322L743 322L743 283L783 283L783 288L822 288L822 326L861 326L861 301L900 301L900 317L900 0L900 0L861 0L861 0L822 0L822 0L783 0L783 0L743 0L743 0L704 0L704 0L665 0L665 0L626 0L626 0L587 0L587 0L548 0L548 0L509 0L509 0L470 0L470 0L430 0L430 0L391 0L391 0L352 0L352 0L313 0L313 0L274 0L274 0L235 0L235 0L196 0L196 0L157 0L157 0L117 0L117 0L78 0L78 0L39 0L39 0L0 0Z" fill="#d597ff"></path><path d="M0 291L39 291L39 264L78 264L78 285L117 285L117 293L157 293L157 278L196 278L196 292L235 292L235 268L274 268L274 269L313 269L313 285L352 285L352 280L391 280L391 282L430 282L430 260L470 260L470 277L509 277L509 253L548 253L548 278L587 278L587 252L626 252L626 250L665 250L665 287L704 287L704 251L743 251L743 255L783 255L783 252L822 252L822 252L861 252L861 268L900 268L900 283L900 0L900 0L861 0L861 0L822 0L822 0L783 0L783 0L743 0L743 0L704 0L704 0L665 0L665 0L626 0L626 0L587 0L587 0L548 0L548 0L509 0L509 0L470 0L470 0L430 0L430 0L391 0L391 0L352 0L352 0L313 0L313 0L274 0L274 0L235 0L235 0L196 0L196 0L157 0L157 0L117 0L117 0L78 0L78 0L39 0L39 0L0 0Z" fill="#c989f4"></path><path d="M0 263L39 263L39 259L78 259L78 228L117 228L117 269L157 269L157 226L196 226L196 237L235 237L235 265L274 265L274 224L313 224L313 243L352 243L352 264L391 264L391 250L430 250L430 248L470 248L470 247L509 247L509 245L548 245L548 269L587 269L587 265L626 265L626 244L665 244L665 246L704 246L704 243L743 243L743 244L783 244L783 268L822 268L822 245L861 245L861 271L900 271L900 250L900 0L900 0L861 0L861 0L822 0L822 0L783 0L783 0L743 0L743 0L704 0L704 0L665 0L665 0L626 0L626 0L587 0L587 0L548 0L548 0L509 0L509 0L470 0L470 0L430 0L430 0L391 0L391 0L352 0L352 0L313 0L313 0L274 0L274 0L235 0L235 0L196 0L196 0L157 0L157 0L117 0L117 0L78 0L78 0L39 0L39 0L0 0Z" fill="#bc7ce9"></path><path d="M0 202L39 202L39 217L78 217L78 239L117 239L117 245L157 245L157 238L196 238L196 227L235 227L235 227L274 227L274 218L313 218L313 221L352 221L352 225L391 225L391 217L430 217L430 219L470 219L470 234L509 234L509 223L548 223L548 239L587 239L587 242L626 242L626 226L665 226L665 212L704 212L704 230L743 230L743 227L783 227L783 203L822 203L822 230L861 230L861 237L900 237L900 245L900 0L900 0L861 0L861 0L822 0L822 0L783 0L783 0L743 0L743 0L704 0L704 0L665 0L665 0L626 0L626 0L587 0L587 0L548 0L548 0L509 0L509 0L470 0L470 0L430 0L430 0L391 0L391 0L352 0L352 0L313 0L313 0L274 0L274 0L235 0L235 0L196 0L196 0L157 0L157 0L117 0L117 0L78 0L78 0L39 0L39 0L0 0Z" fill="#b06ede"></path><path d="M0 201L39 201L39 219L78 219L78 182L117 182L117 191L157 191L157 201L196 201L196 192L235 192L235 209L274 209L274 211L313 211L313 215L352 215L352 212L391 212L391 208L430 208L430 184L470 184L470 185L509 185L509 194L548 194L548 201L587 201L587 192L626 192L626 210L665 210L665 205L704 205L704 211L743 211L743 207L783 207L783 191L822 191L822 217L861 217L861 186L900 186L900 186L900 0L900 0L861 0L861 0L822 0L822 0L783 0L783 0L743 0L743 0L704 0L704 0L665 0L665 0L626 0L626 0L587 0L587 0L548 0L548 0L509 0L509 0L470 0L470 0L430 0L430 0L391 0L391 0L352 0L352 0L313 0L313 0L274 0L274 0L235 0L235 0L196 0L196 0L157 0L157 0L117 0L117 0L78 0L78 0L39 0L39 0L0 0Z" fill="#a360d3"></path><path d="M0 169L39 169L39 189L78 189L78 176L117 176L117 189L157 189L157 173L196 173L196 159L235 159L235 184L274 184L274 169L313 169L313 187L352 187L352 175L391 175L391 185L430 185L430 175L470 175L470 163L509 163L509 167L548 167L548 175L587 175L587 166L626 166L626 178L665 178L665 185L704 185L704 169L743 169L743 177L783 177L783 180L822 180L822 188L861 188L861 174L900 174L900 182L900 0L900 0L861 0L861 0L822 0L822 0L783 0L783 0L743 0L743 0L704 0L704 0L665 0L665 0L626 0L626 0L587 0L587 0L548 0L548 0L509 0L509 0L470 0L470 0L430 0L430 0L391 0L391 0L352 0L352 0L313 0L313 0L274 0L274 0L235 0L235 0L196 0L196 0L157 0L157 0L117 0L117 0L78 0L78 0L39 0L39 0L0 0Z" fill="#9753c8"></path><path d="M0 147L39 147L39 163L78 163L78 152L117 152L117 161L157 161L157 147L196 147L196 163L235 163L235 145L274 145L274 153L313 153L313 159L352 159L352 142L391 142L391 142L430 142L430 159L470 159L470 138L509 138L509 153L548 153L548 145L587 145L587 145L626 145L626 150L665 150L665 142L704 142L704 139L743 139L743 144L783 144L783 155L822 155L822 155L861 155L861 138L900 138L900 153L900 0L900 0L861 0L861 0L822 0L822 0L783 0L783 0L743 0L743 0L704 0L704 0L665 0L665 0L626 0L626 0L587 0L587 0L548 0L548 0L509 0L509 0L470 0L470 0L430 0L430 0L391 0L391 0L352 0L352 0L313 0L313 0L274 0L274 0L235 0L235 0L196 0L196 0L157 0L157 0L117 0L117 0L78 0L78 0L39 0L39 0L0 0Z" fill="#8b45bd"></path><path d="M0 117L39 117L39 128L78 128L78 114L117 114L117 122L157 122L157 127L196 127L196 123L235 123L235 128L274 128L274 132L313 132L313 116L352 116L352 114L391 114L391 131L430 131L430 114L470 114L470 135L509 135L509 133L548 133L548 130L587 130L587 117L626 117L626 117L665 117L665 134L704 134L704 130L743 130L743 120L783 120L783 116L822 116L822 134L861 134L861 121L900 121L900 128L900 0L900 0L861 0L861 0L822 0L822 0L783 0L783 0L743 0L743 0L704 0L704 0L665 0L665 0L626 0L626 0L587 0L587 0L548 0L548 0L509 0L509 0L470 0L470 0L430 0L430 0L391 0L391 0L352 0L352 0L313 0L313 0L274 0L274 0L235 0L235 0L196 0L196 0L157 0L157 0L117 0L117 0L78 0L78 0L39 0L39 0L0 0Z" fill="#7e37b3"></path><path d="M0 108L39 108L39 103L78 103L78 92L117 92L117 106L157 106L157 97L196 97L196 91L235 91L235 97L274 97L274 92L313 92L313 102L352 102L352 102L391 102L391 90L430 90L430 96L470 96L470 91L509 91L509 97L548 97L548 94L587 94L587 106L626 106L626 99L665 99L665 95L704 95L704 108L743 108L743 90L783 90L783 89L822 89L822 106L861 106L861 96L900 96L900 94L900 0L900 0L861 0L861 0L822 0L822 0L783 0L783 0L743 0L743 0L704 0L704 0L665 0L665 0L626 0L626 0L587 0L587 0L548 0L548 0L509 0L509 0L470 0L470 0L430 0L430 0L391 0L391 0L352 0L352 0L313 0L313 0L274 0L274 0L235 0L235 0L196 0L196 0L157 0L157 0L117 0L117 0L78 0L78 0L39 0L39 0L0 0Z" fill="#7129a8"></path><path d="M0 80L39 80L39 81L78 81L78 74L117 74L117 78L157 78L157 67L196 67L196 67L235 67L235 70L274 70L274 70L313 70L313 75L352 75L352 73L391 73L391 79L430 79L430 69L470 69L470 77L509 77L509 69L548 69L548 80L587 80L587 72L626 72L626 75L665 75L665 72L704 72L704 76L743 76L743 80L783 80L783 75L822 75L822 71L861 71L861 67L900 67L900 75L900 0L900 0L861 0L861 0L822 0L822 0L783 0L783 0L743 0L743 0L704 0L704 0L665 0L665 0L626 0L626 0L587 0L587 0L548 0L548 0L509 0L509 0L470 0L470 0L430 0L430 0L391 0L391 0L352 0L352 0L313 0L313 0L274 0L274 0L235 0L235 0L196 0L196 0L157 0L157 0L117 0L117 0L78 0L78 0L39 0L39 0L0 0Z" fill="#65189d"></path><path d="M0 44L39 44L39 51L78 51L78 44L117 44L117 50L157 50L157 48L196 48L196 54L235 54L235 50L274 50L274 45L313 45L313 45L352 45L352 51L391 51L391 52L430 52L430 47L470 47L470 46L509 46L509 46L548 46L548 51L587 51L587 48L626 48L626 51L665 51L665 49L704 49L704 50L743 50L743 47L783 47L783 48L822 48L822 47L861 47L861 51L900 51L900 50L900 0L900 0L861 0L861 0L822 0L822 0L783 0L783 0L743 0L743 0L704 0L704 0L665 0L665 0L626 0L626 0L587 0L587 0L548 0L548 0L509 0L509 0L470 0L470 0L430 0L430 0L391 0L391 0L352 0L352 0L313 0L313 0L274 0L274 0L235 0L235 0L196 0L196 0L157 0L157 0L117 0L117 0L78 0L78 0L39 0L39 0L0 0Z" fill="#580093"></path></svg>